<svg xmlns="http://www.w3.org/2000/svg" width="44.499" height="44.499" viewBox="0 0 44.499 44.499">
  <path id="Icon_metro-calculator" data-name="Icon metro-calculator" d="M20.37,3.856H5.537A2.975,2.975,0,0,0,2.571,6.823V21.656a2.975,2.975,0,0,0,2.967,2.967H20.37a2.975,2.975,0,0,0,2.967-2.967V6.823A2.975,2.975,0,0,0,20.37,3.856Zm0,11.866H5.537V12.756H20.37ZM44.1,3.856H29.27A2.975,2.975,0,0,0,26.3,6.823V45.389a2.975,2.975,0,0,0,2.967,2.967H44.1a2.975,2.975,0,0,0,2.967-2.967V6.823A2.975,2.975,0,0,0,44.1,3.856Zm0,26.7H29.27V27.589H44.1Zm0-8.9H29.27V18.689H44.1ZM20.37,27.589H5.537a2.975,2.975,0,0,0-2.967,2.967V45.389a2.975,2.975,0,0,0,2.967,2.967H20.37a2.975,2.975,0,0,0,2.967-2.967V30.556a2.975,2.975,0,0,0-2.967-2.967Zm0,11.866H14.437v5.933H11.471V39.455H5.537V36.489h5.933V30.556h2.967v5.933H20.37v2.967Z" transform="translate(-2.571 -3.856)" fill="#5c5697"/>
</svg>
